<svg xmlns="http://www.w3.org/2000/svg" xmlns:xlink="http://www.w3.org/1999/xlink" width="500" zoomAndPan="magnify" viewBox="0 0 375 374.999991" height="500" preserveAspectRatio="xMidYMid meet" version="1.2"><defs/><g id="71e5d77a91"><rect x="0" width="375" y="0" height="374.999991" style="fill:#ffffff;fill-opacity:1;stroke:none;"/><rect x="0" width="375" y="0" height="374.999991" style="fill:#000000;fill-opacity:1;stroke:none;"/><g style="fill:#ffffff;fill-opacity:1;"><g transform="translate(105.213535, 202.927864)"><path style="stroke:none" d="M 79.296875 -57.921875 C 81.285156 -56.316406 82.90625 -54.476562 84.15625 -52.40625 C 85.40625 -50.34375 86.238281 -48.023438 86.65625 -45.453125 C 86.875 -44.128906 86.921875 -42.828125 86.796875 -41.546875 C 86.679688 -40.265625 86.460938 -38.988281 86.140625 -37.71875 C 85.617188 -35.625 84.867188 -33.632812 83.890625 -31.75 C 82.921875 -29.863281 81.785156 -28.070312 80.484375 -26.375 C 78.742188 -24.15625 76.800781 -22.175781 74.65625 -20.4375 C 72.507812 -18.707031 70.226562 -17.140625 67.8125 -15.734375 C 62.695312 -12.734375 57.328125 -10.296875 51.703125 -8.421875 C 51.316406 -8.273438 50.914062 -8.128906 50.5 -7.984375 C 49.925781 -7.804688 49.519531 -7.644531 49.28125 -7.5 C 49.039062 -7.363281 48.890625 -7.160156 48.828125 -6.890625 C 48.765625 -6.617188 48.734375 -6.195312 48.734375 -5.625 C 48.734375 1.457031 48.722656 8.53125 48.703125 15.59375 C 48.703125 16.507812 48.703125 17.414062 48.703125 18.3125 C 48.703125 18.382812 48.703125 18.4375 48.703125 18.46875 C 48.703125 18.96875 48.691406 19.460938 48.671875 19.953125 C 48.660156 20.453125 48.582031 20.941406 48.4375 21.421875 C 48.21875 22.234375 47.71875 22.617188 46.9375 22.578125 C 46.257812 22.554688 45.8125 22.21875 45.59375 21.5625 C 45.320312 20.488281 45.207031 19.378906 45.25 18.234375 C 45.25 17.160156 45.25 16.085938 45.25 15.015625 C 45.25 8.960938 45.25 2.914062 45.25 -3.125 C 45.25 -3.34375 45.25 -3.566406 45.25 -3.796875 C 45.332031 -4.515625 45.257812 -5.296875 45.03125 -6.140625 C 44.601562 -6.097656 44.226562 -6.023438 43.90625 -5.921875 C 43.363281 -5.765625 42.835938 -5.726562 42.328125 -5.8125 C 42.140625 -5.84375 41.96875 -5.894531 41.8125 -5.96875 C 41.664062 -6.039062 41.582031 -6.1875 41.5625 -6.40625 C 41.5625 -6.820312 41.742188 -7.085938 42.109375 -7.203125 C 42.816406 -7.503906 43.546875 -7.765625 44.296875 -7.984375 C 44.960938 -8.210938 45.28125 -8.671875 45.25 -9.359375 C 45.25 -9.785156 45.25 -10.222656 45.25 -10.671875 C 45.25 -10.898438 45.25 -11.148438 45.25 -11.421875 C 45.25 -15.035156 45.25 -18.640625 45.25 -22.234375 C 45.28125 -30.265625 45.296875 -38.300781 45.296875 -46.34375 C 45.296875 -46.425781 45.296875 -46.53125 45.296875 -46.65625 C 45.296875 -47.257812 45.304688 -47.84375 45.328125 -48.40625 C 45.421875 -49.457031 45.992188 -49.984375 47.046875 -49.984375 C 48.046875 -49.953125 48.597656 -49.414062 48.703125 -48.375 C 48.722656 -47.851562 48.722656 -47.34375 48.703125 -46.84375 C 48.703125 -46.664062 48.703125 -46.488281 48.703125 -46.3125 C 48.703125 -43.789062 48.703125 -41.285156 48.703125 -38.796875 C 48.722656 -30.097656 48.734375 -21.394531 48.734375 -12.6875 C 48.734375 -12.46875 48.734375 -12.242188 48.734375 -12.015625 C 48.679688 -11.296875 48.742188 -10.585938 48.921875 -9.890625 C 49.097656 -9.742188 49.265625 -9.6875 49.421875 -9.71875 C 49.585938 -9.75 49.75 -9.796875 49.90625 -9.859375 C 54.09375 -11.421875 58.109375 -13.273438 61.953125 -15.421875 C 65.804688 -17.566406 69.40625 -20.109375 72.75 -23.046875 C 77.09375 -26.847656 80.160156 -31.515625 81.953125 -37.046875 C 82.878906 -40.109375 83.140625 -42.945312 82.734375 -45.5625 C 82.335938 -48.1875 81.410156 -50.535156 79.953125 -52.609375 C 78.503906 -54.691406 76.675781 -56.460938 74.46875 -57.921875 C 70.625 -60.429688 66.0625 -61.984375 60.78125 -62.578125 C 55.507812 -63.179688 49.976562 -62.988281 44.1875 -62 C 38.394531 -61.019531 32.804688 -59.421875 27.421875 -57.203125 C 22.035156 -54.984375 17.316406 -52.320312 13.265625 -49.21875 C 9.210938 -46.113281 6.273438 -42.75 4.453125 -39.125 C 4.023438 -38.40625 3.722656 -37.65625 3.546875 -36.875 C 3.367188 -36.09375 3.382812 -35.273438 3.59375 -34.421875 C 3.71875 -33.929688 3.648438 -33.566406 3.390625 -33.328125 C 3.128906 -33.085938 2.757812 -33 2.28125 -33.0625 C 1.332031 -33.21875 0.675781 -33.722656 0.3125 -34.578125 C 0.0078125 -35.328125 -0.046875 -36.097656 0.140625 -36.890625 C 0.460938 -38.429688 1.078125 -39.851562 1.984375 -41.15625 C 4.878906 -45.363281 8.90625 -49.109375 14.0625 -52.390625 C 19.226562 -55.671875 24.953125 -58.359375 31.234375 -60.453125 C 37.515625 -62.546875 43.796875 -63.894531 50.078125 -64.5 C 56.367188 -65.113281 62.070312 -64.851562 67.1875 -63.71875 C 69.425781 -63.207031 71.554688 -62.476562 73.578125 -61.53125 C 75.597656 -60.59375 77.503906 -59.390625 79.296875 -57.921875 Z M 79.296875 -57.921875 "/></g></g><g style="fill:#ffffff;fill-opacity:1;"><g transform="translate(191.374615, 202.927864)"><path style="stroke:none" d="M 49.96875 -63.40625 C 50.738281 -63.1875 50.960938 -62.738281 50.640625 -62.0625 C 45.484375 -53.4375 40.9375 -44.507812 37 -35.28125 C 33.070312 -26.050781 29.476562 -16.664062 26.21875 -7.125 C 24.09375 -0.863281 22.113281 5.429688 20.28125 11.765625 C 19.832031 13.296875 19.382812 14.84375 18.9375 16.40625 C 18.632812 17.351562 18.320312 18.289062 18 19.21875 C 17.914062 19.5625 17.8125 19.894531 17.6875 20.21875 C 17.269531 21.414062 16.410156 21.9375 15.109375 21.78125 C 14.109375 21.71875 13.425781 21.238281 13.0625 20.34375 C 12.675781 19.332031 12.390625 18.316406 12.203125 17.296875 C 11.492188 13.585938 10.835938 9.863281 10.234375 6.125 C 8.742188 -3.394531 7.273438 -12.910156 5.828125 -22.421875 C 5.378906 -25.503906 4.945312 -28.570312 4.53125 -31.625 C 4.050781 -34.882812 3.570312 -38.144531 3.09375 -41.40625 C 2.675781 -44.007812 2.242188 -46.597656 1.796875 -49.171875 C 1.585938 -50.398438 1.375 -51.613281 1.15625 -52.8125 C 1.101562 -53.050781 1.066406 -53.289062 1.046875 -53.53125 C 1.046875 -53.613281 1.023438 -53.71875 0.984375 -53.84375 C 0.984375 -53.84375 0.96875 -53.84375 0.9375 -53.84375 C 0.90625 -54.0625 0.890625 -54.269531 0.890625 -54.46875 C 0.835938 -54.945312 0.789062 -55.425781 0.75 -55.90625 C 0.789062 -56.5 1.113281 -56.828125 1.71875 -56.890625 C 2.988281 -57.066406 3.765625 -56.507812 4.046875 -55.21875 C 4.046875 -55.195312 4.046875 -55.171875 4.046875 -55.140625 C 4.640625 -52.597656 5.160156 -50.054688 5.609375 -47.515625 C 6.378906 -42.578125 7.140625 -37.65625 7.890625 -32.75 C 7.921875 -32.570312 7.957031 -32.394531 8 -32.21875 C 8.707031 -27.425781 9.421875 -22.648438 10.140625 -17.890625 C 10.460938 -15.546875 10.8125 -13.210938 11.1875 -10.890625 C 11.300781 -10.046875 11.414062 -9.210938 11.53125 -8.390625 C 11.925781 -5.921875 12.300781 -3.460938 12.65625 -1.015625 C 13.25 2.722656 13.84375 6.472656 14.4375 10.234375 C 14.632812 11.410156 14.820312 12.582031 15 13.75 C 15.019531 13.84375 15.046875 13.929688 15.078125 14.015625 C 15.078125 14.109375 15.085938 14.195312 15.109375 14.28125 C 15.148438 14.519531 15.273438 14.628906 15.484375 14.609375 C 15.578125 14.578125 15.660156 14.546875 15.734375 14.515625 C 15.816406 14.484375 15.867188 14.4375 15.890625 14.375 C 16.160156 13.5625 16.410156 12.753906 16.640625 11.953125 C 20.984375 -3.273438 26.195312 -18.160156 32.28125 -32.703125 C 34.375 -37.691406 36.660156 -42.578125 39.140625 -47.359375 C 41.617188 -52.148438 44.265625 -56.867188 47.078125 -61.515625 C 47.316406 -61.929688 47.582031 -62.335938 47.875 -62.734375 C 48.425781 -63.359375 49.125 -63.582031 49.96875 -63.40625 Z M 49.96875 -63.40625 "/></g></g></g></svg>