<svg xmlns="http://www.w3.org/2000/svg" xmlns:xlink="http://www.w3.org/1999/xlink" width="500" zoomAndPan="magnify" viewBox="0 0 375 374.999991" height="500" preserveAspectRatio="xMidYMid meet" version="1.2"><defs/><g id="22b0783744"><rect x="0" width="375" y="0" height="374.999991" style="fill:#ffffff;fill-opacity:1;stroke:none;"/><rect x="0" width="375" y="0" height="374.999991" style="fill:#000000;fill-opacity:1;stroke:none;"/><g style="fill:#ffffff;fill-opacity:1;"><g transform="translate(54.749749, 224.101004)"><path style="stroke:none" d="M 137.125 -100.15625 C 140.5625 -97.382812 143.359375 -94.207031 145.515625 -90.625 C 147.679688 -87.050781 149.128906 -83.039062 149.859375 -78.59375 C 150.234375 -76.3125 150.316406 -74.0625 150.109375 -71.84375 C 149.898438 -69.625 149.507812 -67.421875 148.9375 -65.234375 C 148.050781 -61.609375 146.765625 -58.164062 145.078125 -54.90625 C 143.398438 -51.65625 141.429688 -48.554688 139.171875 -45.609375 C 136.160156 -41.773438 132.800781 -38.359375 129.09375 -35.359375 C 125.394531 -32.367188 121.453125 -29.648438 117.265625 -27.203125 C 108.421875 -22.023438 99.128906 -17.8125 89.390625 -14.5625 C 88.734375 -14.3125 88.039062 -14.054688 87.3125 -13.796875 C 86.320312 -13.484375 85.617188 -13.207031 85.203125 -12.96875 C 84.796875 -12.738281 84.539062 -12.390625 84.4375 -11.921875 C 84.332031 -11.453125 84.28125 -10.722656 84.28125 -9.734375 C 84.28125 2.515625 84.253906 14.742188 84.203125 26.953125 C 84.203125 28.554688 84.203125 30.132812 84.203125 31.6875 C 84.203125 31.800781 84.203125 31.878906 84.203125 31.921875 C 84.203125 32.796875 84.191406 33.660156 84.171875 34.515625 C 84.148438 35.378906 84.007812 36.222656 83.75 37.046875 C 83.375 38.453125 82.515625 39.117188 81.171875 39.046875 C 79.992188 39.003906 79.21875 38.421875 78.84375 37.296875 C 78.375 35.429688 78.175781 33.507812 78.25 31.53125 C 78.25 29.675781 78.25 27.820312 78.25 25.96875 C 78.25 15.5 78.25 5.046875 78.25 -5.390625 C 78.25 -5.773438 78.25 -6.164062 78.25 -6.5625 C 78.382812 -7.8125 78.253906 -9.164062 77.859375 -10.625 C 77.128906 -10.550781 76.484375 -10.421875 75.921875 -10.234375 C 74.984375 -9.972656 74.078125 -9.910156 73.203125 -10.046875 C 72.867188 -10.097656 72.570312 -10.1875 72.3125 -10.3125 C 72.0625 -10.445312 71.910156 -10.703125 71.859375 -11.078125 C 71.859375 -11.804688 72.175781 -12.265625 72.8125 -12.453125 C 74.039062 -12.972656 75.300781 -13.421875 76.59375 -13.796875 C 77.738281 -14.191406 78.289062 -14.988281 78.25 -16.1875 C 78.25 -16.914062 78.25 -17.671875 78.25 -18.453125 C 78.25 -18.847656 78.25 -19.28125 78.25 -19.75 C 78.25 -26.007812 78.25 -32.242188 78.25 -38.453125 C 78.289062 -52.328125 78.3125 -66.226562 78.3125 -80.15625 C 78.3125 -80.289062 78.3125 -80.46875 78.3125 -80.6875 C 78.3125 -81.71875 78.335938 -82.726562 78.390625 -83.71875 C 78.554688 -85.53125 79.546875 -86.4375 81.359375 -86.4375 C 83.097656 -86.382812 84.046875 -85.453125 84.203125 -83.640625 C 84.253906 -82.742188 84.253906 -81.863281 84.203125 -81 C 84.203125 -80.695312 84.203125 -80.390625 84.203125 -80.078125 C 84.203125 -75.734375 84.203125 -71.40625 84.203125 -67.09375 C 84.253906 -52.039062 84.28125 -36.988281 84.28125 -21.9375 C 84.28125 -21.5625 84.28125 -21.175781 84.28125 -20.78125 C 84.1875 -19.53125 84.289062 -18.304688 84.59375 -17.109375 C 84.90625 -16.847656 85.203125 -16.742188 85.484375 -16.796875 C 85.765625 -16.859375 86.035156 -16.941406 86.296875 -17.046875 C 93.535156 -19.742188 100.484375 -22.953125 107.140625 -26.671875 C 113.796875 -30.390625 120.015625 -34.785156 125.796875 -39.859375 C 133.304688 -46.421875 138.613281 -54.488281 141.71875 -64.0625 C 143.3125 -69.351562 143.757812 -74.257812 143.0625 -78.78125 C 142.375 -83.3125 140.773438 -87.375 138.265625 -90.96875 C 135.765625 -94.570312 132.597656 -97.632812 128.765625 -100.15625 C 122.128906 -104.507812 114.25 -107.203125 105.125 -108.234375 C 96 -109.265625 86.425781 -108.925781 76.40625 -107.21875 C 66.394531 -105.519531 56.726562 -102.753906 47.40625 -98.921875 C 38.09375 -95.085938 29.929688 -90.484375 22.921875 -85.109375 C 15.921875 -79.734375 10.84375 -73.914062 7.6875 -67.65625 C 6.957031 -66.414062 6.441406 -65.117188 6.140625 -63.765625 C 5.835938 -62.410156 5.859375 -60.992188 6.203125 -59.515625 C 6.421875 -58.671875 6.304688 -58.039062 5.859375 -57.625 C 5.410156 -57.21875 4.773438 -57.070312 3.953125 -57.1875 C 2.304688 -57.445312 1.164062 -58.316406 0.53125 -59.796875 C 0.0078125 -61.085938 -0.0820312 -62.414062 0.25 -63.78125 C 0.8125 -66.46875 1.867188 -68.925781 3.421875 -71.15625 C 8.429688 -78.445312 15.398438 -84.925781 24.328125 -90.59375 C 33.253906 -96.257812 43.148438 -100.90625 54.015625 -104.53125 C 64.878906 -108.15625 75.742188 -110.492188 86.609375 -111.546875 C 97.472656 -112.609375 107.328125 -112.148438 116.171875 -110.171875 C 120.054688 -109.304688 123.742188 -108.054688 127.234375 -106.421875 C 130.722656 -104.785156 134.019531 -102.695312 137.125 -100.15625 Z M 137.125 -100.15625 "/></g></g><g style="fill:#ffffff;fill-opacity:1;"><g transform="translate(203.752193, 224.101004)"><path style="stroke:none" d="M 86.390625 -109.640625 C 87.734375 -109.265625 88.125 -108.488281 87.5625 -107.3125 C 78.644531 -92.40625 70.785156 -76.972656 63.984375 -61.015625 C 57.191406 -45.054688 50.972656 -28.820312 45.328125 -12.3125 C 41.660156 -1.488281 38.238281 9.398438 35.0625 20.359375 C 34.289062 22.992188 33.515625 25.660156 32.734375 28.359375 C 32.222656 30.003906 31.679688 31.628906 31.109375 33.234375 C 30.972656 33.816406 30.800781 34.390625 30.59375 34.953125 C 29.863281 37.023438 28.378906 37.929688 26.140625 37.671875 C 24.398438 37.554688 23.210938 36.722656 22.578125 35.171875 C 21.921875 33.429688 21.425781 31.679688 21.09375 29.921875 C 19.875 23.492188 18.742188 17.046875 17.703125 10.578125 C 15.117188 -5.878906 12.582031 -22.328125 10.09375 -38.765625 C 9.3125 -44.109375 8.554688 -49.414062 7.828125 -54.6875 C 7.003906 -60.320312 6.179688 -65.960938 5.359375 -71.609375 C 4.628906 -76.109375 3.878906 -80.578125 3.109375 -85.015625 C 2.753906 -87.160156 2.390625 -89.265625 2.015625 -91.328125 C 1.921875 -91.734375 1.847656 -92.148438 1.796875 -92.578125 C 1.796875 -92.710938 1.757812 -92.882812 1.6875 -93.09375 C 1.6875 -93.09375 1.664062 -93.09375 1.625 -93.09375 C 1.570312 -93.46875 1.546875 -93.832031 1.546875 -94.1875 C 1.453125 -95.007812 1.375 -95.832031 1.3125 -96.65625 C 1.375 -97.695312 1.925781 -98.273438 2.96875 -98.390625 C 5.175781 -98.691406 6.515625 -97.726562 6.984375 -95.5 C 6.984375 -95.445312 6.984375 -95.398438 6.984375 -95.359375 C 8.015625 -90.960938 8.921875 -86.5625 9.703125 -82.15625 C 11.046875 -73.625 12.363281 -65.113281 13.65625 -56.625 C 13.695312 -56.3125 13.753906 -56.003906 13.828125 -55.703125 C 15.046875 -47.421875 16.28125 -39.164062 17.53125 -30.9375 C 18.09375 -26.894531 18.691406 -22.863281 19.328125 -18.84375 C 19.546875 -17.382812 19.75 -15.9375 19.9375 -14.5 C 20.613281 -10.238281 21.257812 -5.992188 21.875 -1.765625 C 22.90625 4.703125 23.941406 11.191406 24.984375 17.703125 C 25.304688 19.734375 25.617188 21.757812 25.921875 23.78125 C 25.972656 23.945312 26.023438 24.097656 26.078125 24.234375 C 26.078125 24.398438 26.097656 24.550781 26.140625 24.6875 C 26.210938 25.113281 26.425781 25.304688 26.78125 25.265625 C 26.9375 25.210938 27.078125 25.15625 27.203125 25.09375 C 27.335938 25.039062 27.429688 24.96875 27.484375 24.875 C 27.953125 23.457031 28.382812 22.054688 28.78125 20.671875 C 36.289062 -5.671875 45.300781 -31.410156 55.8125 -56.546875 C 59.4375 -65.179688 63.394531 -73.632812 67.6875 -81.90625 C 71.976562 -90.1875 76.554688 -98.335938 81.421875 -106.359375 C 81.816406 -107.085938 82.273438 -107.796875 82.796875 -108.484375 C 83.734375 -109.566406 84.929688 -109.953125 86.390625 -109.640625 Z M 86.390625 -109.640625 "/></g></g></g></svg>